<?xml version="1.0" encoding="UTF-8" standalone="no"?>
<!-- Created by Vectric (http://www.vectric.com/) -->

<svg
   xmlns:dc="http://purl.org/dc/elements/1.1/"
   xmlns:cc="http://creativecommons.org/ns#"
   xmlns:rdf="http://www.w3.org/1999/02/22-rdf-syntax-ns#"
   xmlns:svg="http://www.w3.org/2000/svg"
   xmlns="http://www.w3.org/2000/svg"
   xmlns:sodipodi="http://sodipodi.sourceforge.net/DTD/sodipodi-0.dtd"
   xmlns:inkscape="http://www.inkscape.org/namespaces/inkscape"
   width="5.50000000in"
   height="2.25000000in"
   viewBox="-2.75000000 -1.12500000 5.50000000 2.25000000"
   id="svg2"
   version="1.1"
   sodipodi:docname="FE SVG Logo.svg"
   inkscape:version="0.92.1 r15371">
  <metadata
     id="metadata48">
    <rdf:RDF>
      <cc:Work
         rdf:about="">
        <dc:format>image/svg+xml</dc:format>
        <dc:type
           rdf:resource="http://purl.org/dc/dcmitype/StillImage" />
      </cc:Work>
    </rdf:RDF>
  </metadata>
  <defs
     id="defs46" />
  <sodipodi:namedview
     pagecolor="#ffffff"
     bordercolor="#666666"
     borderopacity="1"
     objecttolerance="10"
     gridtolerance="10"
     guidetolerance="10"
     inkscape:pageopacity="0"
     inkscape:pageshadow="2"
     inkscape:window-width="1920"
     inkscape:window-height="1121"
     id="namedview44"
     showgrid="false"
     inkscape:zoom="2.719697"
     inkscape:cx="264"
     inkscape:cy="108"
     inkscape:window-x="-9"
     inkscape:window-y="-9"
     inkscape:window-maximized="1"
     inkscape:current-layer="cd2b2c6d-ad55-47c5-90ca-8178f60bdd84" />
  <g
     inkscape:groupmode="layer"
     id="cd2b2c6d-ad55-47c5-90ca-8178f60bdd84"
     inkscape:label="Layer 1"
     style="stroke:#000000;">
    <path
       inkscape:connector-curvature="0"
       style="fill:#ff2a2a;stroke:black;stroke-width:0.01;stroke-linecap:round;stroke-linejoin:round;stroke-opacity:1"
       d="M 0.04857189,-0.67762259 H 1.3092849 l 0.221093,-0.28432565 H 0.04857189 v 0.28432565"
       id="path10-2" />
    <path
       inkscape:connector-curvature="0"
       style="fill:#f55;stroke:black;stroke-width:0.01;stroke-linecap:round;stroke-linejoin:round;stroke-opacity:1"
       d="m 0.04857189,-0.42162769 v 0.804045 l 0.462277,-2.104e-4 0.186683,-0.2560209 h -0.436691 v -0.2744397 h 0.636805 L 1.110223,-0.42162769 H 0.04857189"
       id="path12-4" />
    <path
       inkscape:connector-curvature="0"
       style="fill:white;stroke:black;stroke-width:0.01;stroke-linecap:round;stroke-linejoin:round;stroke-opacity:1"
       d="m -1.1335741,-0.42162769 0.21257599,0.273374 h 0.6368061 v 0.530671 h 0.2122679 v -0.804045 H -1.1335741"
       id="path14-7" />
    <path
       inkscape:connector-curvature="0"
       style="fill:white;stroke:black;stroke-width:0.01;stroke-linecap:round;stroke-linejoin:round;stroke-opacity:1"
       d="m -1.5537301,-0.96194824 h 1.48180599 v 0.28432565 H -1.3326371 l -0.221093,-0.28432565"
       id="path16-6" />
    <path
       inkscape:connector-curvature="0"
       style="fill:white;stroke:black;stroke-width:0.01;stroke-linecap:round;stroke-linejoin:round;stroke-opacity:1"
       d="m -0.12014911,0.51081841 v 0.284453 h 0.3014541 v 0.1050359 h -0.3014541 v 0.0791 h 0.380358 v -0.264235 h -0.301453 v -0.115393 h 0.301453 v -0.088961 h -0.380358"
       id="path18-1" />
    <path
       inkscape:connector-curvature="0"
       style="fill:white;stroke:black;stroke-width:0.01;stroke-linecap:round;stroke-linejoin:round;stroke-opacity:1"
       d="m -0.48907201,0.71517231 h 0.3014529 v 0.2509091 a 0.013314,0.013314 0 0 1 -0.013344,0.013326 h -0.367013 v -0.0791 h 0.301453 v -0.1050361 h -0.301453 v -0.284453 h 0.380357 v 0.088961 h -0.3014529 v 0.1153929"
       id="path20-1" />
    <path
       inkscape:connector-curvature="0"
       style="fill:white;stroke:black;stroke-width:0.01;stroke-linecap:round;stroke-linejoin:round;stroke-opacity:1"
       d="m -1.0081941,0.51081841 v 0.46858886 h 0.37808209 v -0.0791 h -0.2991781 v -0.105036 h 0.1964651 v -0.080099 h -0.1964651 v -0.115393 h 0.2991781 v -0.088961 H -1.0081941"
       id="path22-6" />
    <path
       inkscape:connector-curvature="0"
       style="fill:white;stroke:black;stroke-width:0.01;stroke-linecap:round;stroke-linejoin:round;stroke-opacity:1"
       d="m -1.6982561,0.96606341 v -0.3662841 h 0.159488 v -0.088961 h -0.396256 v 0.088961 h 0.159622 v 0.366284 a 0.013344,0.013344 0 0 0 0.013344,0.013344 h 0.050458 a 0.013344,0.013344 0 0 0 0.013344,-0.013344"
       id="path24-5" />
    <path
       inkscape:connector-curvature="0"
       style="fill:white;stroke:black;stroke-width:0.01;stroke-linecap:round;stroke-linejoin:round;stroke-opacity:1"
       d="m -2.0796321,0.97940727 h 0.077146 V 0.51081841 h -0.077146 v 0.46858886"
       id="path26-0" />
    <path
       inkscape:connector-curvature="0"
       style="fill:red;stroke:black;stroke-width:0.01;stroke-linecap:round;stroke-linejoin:round;stroke-opacity:1"
       d="m 0.61970589,0.51081841 v 0.46858886 h 0.378081 v -0.0791 h -0.2991769 v -0.105036 h 0.196465 v -0.080099 h -0.196465 v -0.1153931 h 0.2991769 v -0.088961 h -0.378081"
       id="path28-5" />
    <path
       inkscape:connector-curvature="0"
       style="fill:red;stroke:black;stroke-width:0.01;stroke-linecap:round;stroke-linejoin:round;stroke-opacity:1"
       d="m 1.5774189,0.51081841 h -0.077145 v 0.46858886 h 0.077145 V 0.51081841"
       id="path30-1" />
    <path
       inkscape:connector-curvature="0"
       style="fill:red;stroke:black;stroke-width:0.01;stroke-linecap:round;stroke-linejoin:round;stroke-opacity:1"
       d="m 1.6591449,0.51081841 v 0.088961 h 0.159623 v 0.37962786 h 0.077145 V 0.59977941 h 0.159488 v -0.088961 h -0.396256"
       id="path32-5" />
    <path
       inkscape:connector-curvature="0"
       style="fill:red;stroke:black;stroke-width:0.01;stroke-linecap:round;stroke-linejoin:round;stroke-opacity:1"
       d="m 2.1236009,0.50805931 v 0.4685891 H 2.501683 v -0.0791 H 2.2025059 v -0.1050371 h 0.196465 v -0.080099 H 2.2025059 V 0.59701921 H 2.501683 v -0.08896 H 2.1236009"
       id="path34-8" />
    <path
       inkscape:connector-curvature="0"
       style="fill:white;stroke:black;stroke-width:0.01;stroke-linecap:round;stroke-linejoin:round;stroke-opacity:1"
       d="m -2.4983171,0.51081841 v 0.46858886 h 0.077146 V 0.79527141 h 0.243598 v -0.080099 h -0.243598 v -0.1153931 h 0.280981 v -0.088961 h -0.358127"
       id="path36-4" />
    <path
       inkscape:connector-curvature="0"
       style="fill:red;stroke:black;stroke-width:0.01;stroke-linecap:round;stroke-linejoin:round;stroke-opacity:1"
       d="m 1.087488,0.51081841 v 0.46858886 h 0.3332229 v -0.0791 h -0.250557 l 0.00119,-0.3894889 h -0.083852"
       id="path38-0" />
    <path
       inkscape:connector-curvature="0"
       style="fill:white;stroke:black;stroke-width:0.01;stroke-linecap:round;stroke-linejoin:round;stroke-opacity:1"
       d="m -1.1621781,0.97940727 h 0.077117 l -5.21e-5,-0.46858886 h -0.077288 l 1.417e-4,0.149528 -0.314408,-0.157965 6.66e-4,0.47702586 h 0.076485 l 8.33e-5,-0.34092496 0.237177,0.11938 1.094e-4,0.22154496"
       id="path40-0" />
    <rect
       style="opacity:1;fill:red;fill-opacity:0;fill-rule:nonzero;stroke:black;stroke-width:0.06000002;stroke-miterlimit:4;stroke-dasharray:none;stroke-opacity:0;paint-order:fill markers stroke"
       id="rect110"
       width="5.3807607"
       height="2.1761525"
       x="-2.7201898"
       y="-1.0511518" />
    <rect
       style="opacity:1;fill:red;fill-opacity:0;fill-rule:nonzero;stroke:black;stroke-width:0.06000002;stroke-miterlimit:4;stroke-dasharray:none;stroke-opacity:0;paint-order:fill markers stroke"
       id="rect114"
       width="7.3333359"
       height="3.7859089"
       x="-3.9126019"
       y="-1.5430218" />
    <rect
       style="opacity:1;fill:red;fill-opacity:0;fill-rule:nonzero;stroke:black;stroke-width:0.06000002;stroke-miterlimit:4;stroke-dasharray:none;stroke-opacity:0;paint-order:fill markers stroke"
       id="rect116"
       width="0"
       height="0"
       x="-2.7201896"
       y="-1.0511518" />
    <rect
       style="opacity:1;fill:red;fill-opacity:0;fill-rule:nonzero;stroke:black;stroke-width:0.06000002;stroke-miterlimit:4;stroke-dasharray:none;stroke-opacity:0;paint-order:fill markers stroke"
       id="rect118"
       width="2.9810307"
       height="1.1029822"
       x="-2.7201898"
       y="0.022019356" />
    <rect
       style="opacity:1;fill:red;fill-opacity:0;fill-rule:nonzero;stroke:black;stroke-width:0.06000002;stroke-miterlimit:4;stroke-dasharray:none;stroke-opacity:0;paint-order:fill markers stroke"
       id="rect120"
       width="4.7398391"
       height="1.6693788"
       x="2.7798102"
       y="-2.7943764"
       ry="0" />
  </g>
</svg>
